<svg width="256" height="25" viewBox="0 0 256 25" fill="none" xmlns="http://www.w3.org/2000/svg">
<mask id="mask0" mask-type="alpha" maskUnits="userSpaceOnUse" x="125" y="0" width="25" height="25">
<path d="M149.221 12.0772C149.221 18.7473 143.814 24.1544 137.144 24.1544C130.474 24.1544 125.066 18.7473 125.066 12.0772C125.066 5.40715 130.474 0 137.144 0C143.814 0 149.221 5.40715 149.221 12.0772Z" fill="white"/>
</mask>
<g mask="url(#mask0)">
<path d="M131.968 3.45063C131.968 5.35637 130.423 6.90127 128.517 6.90127C126.611 6.90127 125.066 5.35637 125.066 3.45063C125.066 1.5449 126.611 0 128.517 0C130.423 0 131.968 1.5449 131.968 3.45063Z" fill="white"/>
<path d="M131.968 12.0776C131.968 13.9833 130.423 15.5282 128.517 15.5282C126.611 15.5282 125.066 13.9833 125.066 12.0776C125.066 10.1719 126.611 8.62695 128.517 8.62695C130.423 8.62695 131.968 10.1719 131.968 12.0776Z" fill="white"/>
<path d="M131.968 20.7036C131.968 22.6093 130.423 24.1542 128.517 24.1542C126.611 24.1542 125.066 22.6093 125.066 20.7036C125.066 18.7978 126.611 17.2529 128.517 17.2529C130.423 17.2529 131.968 18.7978 131.968 20.7036Z" fill="white"/>
<path d="M140.595 3.45063C140.595 5.35637 139.05 6.90127 137.144 6.90127C135.238 6.90127 133.693 5.35637 133.693 3.45063C133.693 1.5449 135.238 0 137.144 0C139.05 0 140.595 1.5449 140.595 3.45063Z" fill="white"/>
<path d="M140.595 12.0776C140.595 13.9833 139.05 15.5282 137.144 15.5282C135.238 15.5282 133.693 13.9833 133.693 12.0776C133.693 10.1719 135.238 8.62695 137.144 8.62695C139.05 8.62695 140.595 10.1719 140.595 12.0776Z" fill="white"/>
<path d="M140.595 20.7036C140.595 22.6093 139.05 24.1542 137.144 24.1542C135.238 24.1542 133.693 22.6093 133.693 20.7036C133.693 18.7978 135.238 17.2529 137.144 17.2529C139.05 17.2529 140.595 18.7978 140.595 20.7036Z" fill="white"/>
<path d="M149.22 3.45063C149.22 5.35637 147.675 6.90127 145.769 6.90127C143.863 6.90127 142.318 5.35637 142.318 3.45063C142.318 1.5449 143.863 0 145.769 0C147.675 0 149.22 1.5449 149.22 3.45063Z" fill="white"/>
<path d="M149.22 12.0776C149.22 13.9833 147.675 15.5282 145.769 15.5282C143.863 15.5282 142.318 13.9833 142.318 12.0776C142.318 10.1719 143.863 8.62695 145.769 8.62695C147.675 8.62695 149.22 10.1719 149.22 12.0776Z" fill="white"/>
<path d="M149.22 20.7036C149.22 22.6093 147.675 24.1542 145.769 24.1542C143.863 24.1542 142.318 22.6093 142.318 20.7036C142.318 18.7978 143.863 17.2529 145.769 17.2529C147.675 17.2529 149.22 18.7978 149.22 20.7036Z" fill="white"/>
</g>
<path d="M8.24148 1.41721C9.97753 1.41721 11.4847 1.70338 12.7628 2.2757C14.0601 2.84803 15.0521 3.66836 15.7389 4.7367C16.4257 5.80504 16.7691 7.07369 16.7691 8.54266C16.7691 9.99255 16.4257 11.2612 15.7389 12.3486C15.0521 13.417 14.0601 14.2373 12.7628 14.8096C11.4847 15.3819 9.97753 15.6681 8.24148 15.6681H3.72011V21.4486H0V1.41721H8.24148ZM8.06978 12.5203C9.69137 12.5203 10.9219 12.1769 11.7613 11.4901C12.6007 10.8033 13.0204 9.82085 13.0204 8.54266C13.0204 7.26447 12.6007 6.28198 11.7613 5.59519C10.9219 4.9084 9.69137 4.565 8.06978 4.565H3.72011V12.5203H8.06978Z" fill="white"/>
<path d="M28.6734 5.99581C30.6002 5.99581 32.1455 6.5586 33.3092 7.68417C34.473 8.80975 35.0548 10.479 35.0548 12.692V21.4486H31.4778V13.1499C31.4778 11.8145 31.163 10.8129 30.5335 10.1452C29.9039 9.45838 29.0073 9.11499 27.8435 9.11499C26.5272 9.11499 25.4875 9.51561 24.7244 10.3169C23.9613 11.099 23.5797 12.2342 23.5797 13.7222V21.4486H20.0027V0.215332H23.5797V7.94172C24.1711 7.31216 24.8961 6.83523 25.7545 6.51091C26.6321 6.16751 27.6051 5.99581 28.6734 5.99581Z" fill="white"/>
<path d="M54.4576 6.16754V21.4486H51.0523V19.4741C50.4609 20.199 49.7264 20.7428 48.8489 21.1052C47.9904 21.4677 47.0365 21.6489 45.9872 21.6489C44.4992 21.6489 43.1638 21.3246 41.981 20.676C40.8172 20.0273 39.9015 19.1116 39.2338 17.9288C38.5852 16.746 38.2608 15.3724 38.2608 13.8081C38.2608 12.2437 38.5852 10.8797 39.2338 9.71596C39.9015 8.53315 40.8172 7.61743 41.981 6.9688C43.1638 6.32016 44.4992 5.99585 45.9872 5.99585C46.9793 5.99585 47.8854 6.16754 48.7058 6.51094C49.5452 6.85433 50.2701 7.35989 50.8806 8.0276V6.16754H54.4576ZM46.3879 18.587C47.7042 18.587 48.7916 18.1482 49.6501 17.2706C50.5086 16.3931 50.9378 15.2389 50.9378 13.8081C50.9378 12.3773 50.5086 11.2231 49.6501 10.3455C48.7916 9.46795 47.7042 9.02917 46.3879 9.02917C45.0715 9.02917 43.9841 9.46795 43.1256 10.3455C42.2862 11.2231 41.8665 12.3773 41.8665 13.8081C41.8665 15.2389 42.2862 16.3931 43.1256 17.2706C43.9841 18.1482 45.0715 18.587 46.3879 18.587Z" fill="white"/>
<path d="M61.4384 8.39962C62.4685 6.79711 64.2809 5.99585 66.8755 5.99585V9.40118C66.5702 9.34395 66.2936 9.31534 66.0456 9.31534C64.6529 9.31534 63.5655 9.7255 62.7833 10.5458C62.0011 11.3471 61.6101 12.5108 61.6101 14.037V21.4486H58.033V6.16755H61.4384V8.39962Z" fill="white"/>
<path d="M89.2734 5.99585C91.2003 5.99585 92.7265 6.55863 93.852 7.6842C94.9776 8.7907 95.5404 10.46 95.5404 12.692V21.4486H91.9633V13.1499C91.9633 11.8145 91.6676 10.8129 91.0762 10.1452C90.4848 9.45841 89.6359 9.11502 88.5294 9.11502C87.3275 9.11502 86.3641 9.51564 85.6392 10.3169C84.9142 11.0991 84.5518 12.2246 84.5518 13.6936V21.4486H80.9747V13.1499C80.9747 11.8145 80.679 10.8129 80.0876 10.1452C79.4962 9.45841 78.6473 9.11502 77.5408 9.11502C76.3198 9.11502 75.3468 9.5061 74.6219 10.2883C73.916 11.0705 73.5632 12.2056 73.5632 13.6936V21.4486H69.9862V6.16754H73.3915V8.11345C73.9638 7.42666 74.6791 6.90203 75.5376 6.53955C76.3961 6.17708 77.35 5.99585 78.3993 5.99585C79.5439 5.99585 80.555 6.21524 81.4326 6.65402C82.3292 7.07372 83.0351 7.70328 83.5502 8.54269C84.1797 7.74144 84.9905 7.12142 85.9826 6.68264C86.9746 6.22478 88.0715 5.99585 89.2734 5.99585Z" fill="white"/>
<path d="M114.714 6.16754V21.4486H111.309V19.4741C110.718 20.199 109.983 20.7428 109.106 21.1052C108.247 21.4677 107.293 21.6489 106.244 21.6489C104.756 21.6489 103.42 21.3246 102.238 20.676C101.074 20.0273 100.158 19.1116 99.4905 17.9288C98.8419 16.746 98.5175 15.3724 98.5175 13.8081C98.5175 12.2437 98.8419 10.8797 99.4905 9.71596C100.158 8.53315 101.074 7.61743 102.238 6.9688C103.42 6.32016 104.756 5.99585 106.244 5.99585C107.236 5.99585 108.142 6.16754 108.962 6.51094C109.802 6.85433 110.527 7.35989 111.137 8.0276V6.16754H114.714ZM106.645 18.587C107.961 18.587 109.048 18.1482 109.907 17.2706C110.765 16.3931 111.195 15.2389 111.195 13.8081C111.195 12.3773 110.765 11.2231 109.907 10.3455C109.048 9.46795 107.961 9.02917 106.645 9.02917C105.328 9.02917 104.241 9.46795 103.382 10.3455C102.543 11.2231 102.123 12.3773 102.123 13.8081C102.123 15.2389 102.543 16.3931 103.382 17.2706C104.241 18.1482 105.328 18.587 106.645 18.587Z" fill="white"/>
<path d="M173.912 11.2376H177.447V18.3975C174.142 21.3528 171.133 21.7281 168.967 21.7281C167.109 21.7281 165.403 21.329 163.851 20.5308C162.299 19.7326 161.053 18.5733 160.114 17.053C159.194 15.5326 158.734 13.7177 158.734 11.6082C158.734 9.61272 159.204 7.82629 160.143 6.24892C161.082 4.65254 162.375 3.41725 164.023 2.54305C165.691 1.64984 167.559 1.20323 169.629 1.20323C171.315 1.20323 172.848 1.4788 174.228 2.02993C175.607 2.58106 176.767 3.38875 177.706 4.453L175.349 6.73354C173.816 5.21318 171.966 4.453 169.801 4.453C168.383 4.453 167.118 4.75707 166.007 5.36521C164.914 5.95435 164.052 6.79055 163.42 7.87381C162.807 8.95706 162.5 10.1924 162.5 11.5797C162.5 13.043 162.807 14.3068 163.42 15.3711C164.052 16.4163 164.886 17.2145 165.921 17.7656C166.955 18.2978 168.086 18.5638 169.312 18.5638C170.175 18.5638 170.999 18.4308 171.784 18.1647C172.589 17.8987 173.298 17.5091 173.912 16.996V11.2376Z" fill="white"/>
<path d="M186.098 21.6426C184.507 21.6426 183.262 21.215 182.361 20.3598C181.479 19.4855 181.039 18.2598 181.039 16.6824V0.291016H184.632V16.4258C184.632 17.9462 185.35 18.7064 186.788 18.7064C187.267 18.7064 187.698 18.6113 188.081 18.4213L188.254 21.272C187.583 21.519 186.864 21.6426 186.098 21.6426Z" fill="white"/>
<path d="M198.564 21.6426C197.012 21.6426 195.613 21.31 194.367 20.6448C193.122 19.9797 192.144 19.0579 191.435 17.8797C190.745 16.6824 190.401 15.3331 190.401 13.8317C190.401 12.3304 190.745 10.9905 191.435 9.81226C192.144 8.63399 193.122 7.71227 194.367 7.04711C195.613 6.38195 197.012 6.04938 198.564 6.04938C200.135 6.04938 201.544 6.38195 202.789 7.04711C204.035 7.71227 205.003 8.63399 205.693 9.81226C206.402 10.9905 206.756 12.3304 206.756 13.8317C206.756 15.3331 206.402 16.6824 205.693 17.8797C205.003 19.0579 204.035 19.9797 202.789 20.6448C201.544 21.31 200.135 21.6426 198.564 21.6426ZM198.564 18.5923C199.886 18.5923 200.979 18.1552 201.841 17.281C202.703 16.4068 203.134 15.257 203.134 13.8317C203.134 12.4064 202.703 11.2566 201.841 10.3824C200.979 9.50819 199.886 9.07109 198.564 9.07109C197.242 9.07109 196.149 9.50819 195.287 10.3824C194.444 11.2566 194.022 12.4064 194.022 13.8317C194.022 15.257 194.444 16.4068 195.287 17.281C196.149 18.1552 197.242 18.5923 198.564 18.5923Z" fill="white"/>
<path d="M218.442 6.04938C219.937 6.04938 221.268 6.37245 222.437 7.0186C223.625 7.66476 224.555 8.57697 225.226 9.75525C225.896 10.9335 226.232 12.2923 226.232 13.8317C226.232 15.3711 225.896 16.7394 225.226 17.9367C224.555 19.115 223.625 20.0272 222.437 20.6733C221.268 21.3195 219.937 21.6426 218.442 21.6426C217.388 21.6426 216.42 21.462 215.539 21.1009C214.676 20.7398 213.948 20.1982 213.354 19.476V21.443H209.933V0.291016H213.526V8.07335C214.14 7.4082 214.858 6.90458 215.682 6.5625C216.525 6.22042 217.445 6.04938 218.442 6.04938ZM218.039 18.5923C219.362 18.5923 220.444 18.1552 221.288 17.281C222.15 16.4068 222.581 15.257 222.581 13.8317C222.581 12.4064 222.15 11.2566 221.288 10.3824C220.444 9.50819 219.362 9.07109 218.039 9.07109C217.177 9.07109 216.401 9.27064 215.711 9.66973C215.021 10.0498 214.475 10.6009 214.073 11.3231C213.67 12.0453 213.469 12.8815 213.469 13.8317C213.469 14.7819 213.67 15.6181 214.073 16.3403C214.475 17.0625 215.021 17.6231 215.711 18.0222C216.401 18.4023 217.177 18.5923 218.039 18.5923Z" fill="white"/>
<path d="M245.075 6.22042V21.443H241.655V19.476C241.061 20.1982 240.323 20.7398 239.441 21.1009C238.579 21.462 237.621 21.6426 236.567 21.6426C235.072 21.6426 233.731 21.3195 232.543 20.6733C231.374 20.0272 230.454 19.115 229.783 17.9367C229.132 16.7584 228.806 15.3901 228.806 13.8317C228.806 12.2733 229.132 10.9145 229.783 9.75525C230.454 8.57697 231.374 7.66476 232.543 7.0186C233.731 6.37245 235.072 6.04938 236.567 6.04938C237.563 6.04938 238.474 6.22042 239.298 6.5625C240.141 6.90458 240.869 7.4082 241.482 8.07335V6.22042H245.075ZM236.969 18.5923C238.291 18.5923 239.384 18.1552 240.246 17.281C241.108 16.4068 241.54 15.257 241.54 13.8317C241.54 12.4064 241.108 11.2566 240.246 10.3824C239.384 9.50819 238.291 9.07109 236.969 9.07109C235.647 9.07109 234.555 9.50819 233.692 10.3824C232.849 11.2566 232.428 12.4064 232.428 13.8317C232.428 15.257 232.849 16.4068 233.692 17.281C234.555 18.1552 235.647 18.5923 236.969 18.5923Z" fill="white"/>
<path d="M253.843 21.6426C252.253 21.6426 251.007 21.215 250.107 20.3598C249.225 19.4855 248.784 18.2598 248.784 16.6824V0.291016H252.377V16.4258C252.377 17.9462 253.096 18.7064 254.533 18.7064C255.012 18.7064 255.443 18.6113 255.827 18.4213L255.999 21.272C255.328 21.519 254.61 21.6426 253.843 21.6426Z" fill="white"/>
</svg>
